<svg width="158" height="110" viewBox="0 0 158 110" fill="none" xmlns="http://www.w3.org/2000/svg">
<g clip-path="url(#clip0_6_506)">
<path d="M31.4805 110C48.8666 110 62.9609 108.929 62.9609 107.608C62.9609 106.286 48.8666 105.215 31.4805 105.215C14.0943 105.215 0 106.286 0 107.608C0 108.929 14.0943 110 31.4805 110Z" fill="#E6E6E6"/>
<path d="M24.063 24.407C29.5415 22.0753 36.3652 23.5526 43.0292 24.578C43.0912 23.3363 43.8428 21.8251 43.0554 20.9588C42.0989 19.9064 42.1869 18.8006 42.7625 17.6884C44.2345 14.8443 42.1256 11.8181 39.9962 9.30183C39.5163 8.73595 38.9097 8.29133 38.2258 8.00409C37.5418 7.71685 36.7999 7.59508 36.0601 7.64867L32.1155 7.93061C31.1557 7.99921 30.2397 8.35951 29.49 8.9633C28.7404 9.56708 28.1929 10.3856 27.9209 11.3092V11.3092C26.979 12.591 26.4749 13.8692 26.7923 15.1408C25.3815 16.1056 25.1445 17.2701 25.7784 18.5829C26.316 19.4095 26.3103 20.2141 25.754 20.9964C25.0234 21.9938 24.4638 23.106 24.0982 24.2873L24.063 24.407Z" fill="#2F2E41"/>
<path d="M154.256 95.0932H42.5965C41.6036 95.0932 40.6513 94.6985 39.9491 93.9959C39.247 93.2933 38.8525 92.3404 38.8525 91.3468C79.3291 86.6396 119.045 86.6396 158 91.3468C158 92.3404 157.606 93.2933 156.903 93.9959C156.201 94.6985 155.249 95.0932 154.256 95.0932Z" fill="#2F2E41"/>
<path d="M158 91.5672L38.8525 91.3468L52.6613 68.0969L52.7274 67.9867V16.7465C52.7273 16.1246 52.8497 15.5087 53.0876 14.9341C53.3254 14.3595 53.674 13.8374 54.1135 13.3976C54.553 12.9578 55.0748 12.609 55.649 12.371C56.2232 12.133 56.8387 12.0106 57.4603 12.0106H138.732C139.353 12.0106 139.969 12.133 140.543 12.371C141.117 12.609 141.639 12.9578 142.078 13.3976C142.518 13.8374 142.867 14.3595 143.104 14.9341C143.342 15.5087 143.465 16.1246 143.465 16.7465V68.3393L158 91.5672Z" fill="#3F3D56"/>
<path d="M57.3522 15.3163C56.9435 15.3167 56.5516 15.4794 56.2626 15.7686C55.9736 16.0578 55.811 16.4499 55.8105 16.8589V63.5791C55.811 63.9881 55.9736 64.3802 56.2626 64.6694C56.5516 64.9586 56.9435 65.1213 57.3522 65.1218H139.5C139.909 65.1213 140.301 64.9586 140.59 64.6694C140.879 64.3802 141.041 63.9881 141.042 63.5791V16.8589C141.041 16.4499 140.879 16.0578 140.59 15.7686C140.301 15.4794 139.909 15.3168 139.5 15.3163H57.3522Z" fill="white"/>
<path d="M57.6964 71.2924C57.5701 71.2926 57.4465 71.3289 57.3402 71.3971C57.2338 71.4653 57.1492 71.5624 57.0962 71.6772L52.8413 80.9331C52.7949 81.0338 52.7747 81.1445 52.7823 81.2551C52.79 81.3658 52.8254 81.4727 52.8851 81.566C52.9449 81.6594 53.0272 81.7362 53.1244 81.7894C53.2216 81.8426 53.3306 81.8705 53.4414 81.8705H142.92C143.033 81.8705 143.143 81.8417 143.242 81.7868C143.34 81.7319 143.423 81.6528 143.482 81.5569C143.541 81.4611 143.575 81.3516 143.58 81.2391C143.585 81.1265 143.561 81.0145 143.511 80.9137L138.886 71.6578C138.831 71.5478 138.747 71.4552 138.643 71.3906C138.538 71.326 138.418 71.292 138.295 71.2924H57.6964Z" fill="#2F2E41"/>
<path d="M98.0958 14.5449C98.6431 14.5449 99.0869 14.1009 99.0869 13.5532C99.0869 13.0055 98.6431 12.5615 98.0958 12.5615C97.5484 12.5615 97.1047 13.0055 97.1047 13.5532C97.1047 14.1009 97.5484 14.5449 98.0958 14.5449Z" fill="white"/>
<path d="M89.301 83.6335C89.1557 83.6337 89.0146 83.6817 88.8993 83.7701C88.784 83.8585 88.701 83.9824 88.6631 84.1227L87.5958 88.0895C87.5694 88.1875 87.5659 88.2903 87.5856 88.3898C87.6052 88.4894 87.6476 88.5831 87.7092 88.6636C87.7709 88.7442 87.8503 88.8094 87.9412 88.8544C88.0322 88.8993 88.1322 88.9226 88.2337 88.9226H108.531C108.637 88.9226 108.741 88.8974 108.834 88.8491C108.928 88.8008 109.008 88.7308 109.07 88.6449C109.131 88.5591 109.17 88.4598 109.185 88.3555C109.2 88.2512 109.19 88.1448 109.156 88.0452L107.783 84.0784C107.738 83.9485 107.654 83.8359 107.542 83.7562C107.43 83.6765 107.296 83.6336 107.159 83.6335H89.301Z" fill="#2F2E41"/>
<path d="M143.464 67.2155V68.0969H52.6611L52.7295 67.9868V67.2155H143.464Z" fill="#2F2E41"/>
<path d="M140.932 30.853C149.446 30.853 156.348 23.9463 156.348 15.4265C156.348 6.90667 149.446 0 140.932 0C132.417 0 125.515 6.90667 125.515 15.4265C125.515 23.9463 132.417 30.853 140.932 30.853Z" fill="#FF556F"/>
<path d="M147.319 22.148H134.545C134.311 22.1478 134.087 22.0548 133.922 21.8896C133.757 21.7243 133.664 21.5002 133.664 21.2665V13.5533C133.664 13.3195 133.757 13.0955 133.922 12.9302C134.088 12.765 134.311 12.672 134.545 12.6718H147.319C147.552 12.672 147.776 12.765 147.941 12.9302C148.106 13.0955 148.199 13.3195 148.2 13.5533V21.2665C148.199 21.5002 148.106 21.7243 147.941 21.8896C147.776 22.0548 147.552 22.1478 147.319 22.148ZM134.545 13.5533V21.2665H147.319L147.319 13.5533L134.545 13.5533Z" fill="white"/>
<path d="M144.896 13.5532H136.968V10.0272C136.968 7.47326 138.635 5.61963 140.932 5.61963C143.229 5.61963 144.896 7.47326 144.896 10.0272L144.896 13.5532ZM137.848 12.6717H144.015V10.0272C144.015 7.95113 142.747 6.50115 140.932 6.50115C139.116 6.50115 137.848 7.95114 137.848 10.0272L137.848 12.6717Z" fill="white"/>
<path d="M140.932 18.071C141.418 18.071 141.813 17.6763 141.813 17.1895C141.813 16.7027 141.418 16.308 140.932 16.308C140.445 16.308 140.051 16.7027 140.051 17.1895C140.051 17.6763 140.445 18.071 140.932 18.071Z" fill="white"/>
<path d="M130.17 49.2748H66.6828C66.3711 49.2744 66.0722 49.1504 65.8518 48.9298C65.6314 48.7093 65.5074 48.4103 65.5071 48.0984V32.3398C65.5074 32.0279 65.6314 31.7289 65.8518 31.5083C66.0722 31.2878 66.3711 31.1637 66.6828 31.1633H130.17C130.481 31.1637 130.78 31.2878 131.001 31.5083C131.221 31.7289 131.345 32.0279 131.345 32.3398V48.0984C131.345 48.4103 131.221 48.7093 131.001 48.9298C130.78 49.1504 130.481 49.2744 130.17 49.2748V49.2748ZM66.6828 31.6339C66.4957 31.6341 66.3164 31.7086 66.1842 31.8409C66.0519 31.9732 65.9776 32.1526 65.9774 32.3398V48.0984C65.9776 48.2855 66.0519 48.4649 66.1842 48.5973C66.3164 48.7296 66.4957 48.804 66.6828 48.8042H130.17C130.357 48.804 130.536 48.7296 130.668 48.5973C130.8 48.4649 130.875 48.2855 130.875 48.0984V32.3398C130.875 32.1526 130.8 31.9732 130.668 31.8409C130.536 31.7085 130.357 31.6341 130.17 31.6339L66.6828 31.6339Z" fill="#E6E6E6"/>
<path d="M76.5474 44.4065C79.1924 44.4065 81.3365 42.261 81.3365 39.6143C81.3365 36.9677 79.1924 34.8221 76.5474 34.8221C73.9025 34.8221 71.7583 36.9677 71.7583 39.6143C71.7583 42.261 73.9025 44.4065 76.5474 44.4065Z" fill="#E6E6E6"/>
<path d="M87.6078 36.4196C87.5029 36.4194 87.3989 36.4399 87.3019 36.48C87.205 36.5201 87.1168 36.5789 87.0426 36.653C86.9683 36.7272 86.9094 36.8153 86.8692 36.9123C86.829 37.0093 86.8083 37.1133 86.8083 37.2183C86.8083 37.3232 86.829 37.4272 86.8692 37.5242C86.9094 37.6212 86.9683 37.7093 87.0426 37.7835C87.1168 37.8577 87.205 37.9165 87.3019 37.9565C87.3989 37.9966 87.5029 38.0171 87.6078 38.017H125.236C125.448 38.017 125.651 37.9328 125.801 37.783C125.951 37.6332 126.035 37.4301 126.035 37.2183C126.035 37.0064 125.951 36.8033 125.801 36.6535C125.651 36.5037 125.448 36.4196 125.236 36.4196H87.6078Z" fill="#E6E6E6"/>
<path d="M87.608 41.2118C87.3963 41.2118 87.1933 41.2959 87.0436 41.4457C86.8939 41.5955 86.8098 41.7987 86.8098 42.0105C86.8098 42.2223 86.8939 42.4255 87.0436 42.5753C87.1933 42.725 87.3963 42.8092 87.608 42.8092H103.8C104.011 42.8092 104.214 42.725 104.364 42.5753C104.514 42.4255 104.598 42.2223 104.598 42.0105C104.598 41.7987 104.514 41.5955 104.364 41.4457C104.214 41.2959 104.011 41.2118 103.8 41.2118H87.608Z" fill="#E6E6E6"/>
<path d="M52.505 41.5349L40.7689 47.7784L40.6204 42.5755C44.4509 41.9356 48.0953 40.8216 51.4651 39.0078L52.6925 35.9734C52.8262 35.6427 53.0436 35.3525 53.3233 35.1313C53.603 34.9102 53.9353 34.7655 54.2877 34.7117C54.6401 34.6578 55.0004 34.6966 55.3333 34.8242C55.6662 34.9518 55.9602 35.1638 56.1865 35.4395V35.4395C56.5176 35.8428 56.6831 36.3569 56.6495 36.8777C56.6158 37.3985 56.3856 37.8871 56.0055 38.2444L52.505 41.5349Z" fill="#FFB8B8"/>
<path d="M23.8293 77.5824C23.7436 77.2682 23.7255 76.9394 23.7759 76.6176C23.8264 76.2959 23.9443 75.9885 24.122 75.7156L26.7001 71.7565C27.3099 70.8201 28.2455 70.1437 29.3255 69.8586C30.4055 69.5735 31.5528 69.7 32.5449 70.2136V70.2136C31.4614 72.059 31.6124 73.678 32.9191 75.0849C30.8907 76.0758 29.016 77.3547 27.353 78.882C27.0494 79.0891 26.7008 79.2206 26.3361 79.2655C25.9714 79.3105 25.6013 79.2676 25.2566 79.1405C24.9118 79.0133 24.6024 78.8056 24.3542 78.5346C24.1059 78.2635 23.9259 77.9371 23.8293 77.5824V77.5824Z" fill="#2F2E41"/>
<path d="M53.0396 72.4058C52.6495 73.0564 52.0988 73.5957 51.4404 73.9721C50.782 74.3484 50.0379 74.5491 49.2797 74.5548L32.1527 74.6847L31.4099 70.3737L38.9863 68.1439L32.5984 63.2383L39.5806 55.0624L52.2624 66.89C53.0036 67.5813 53.4852 68.5063 53.6267 69.5102C53.7682 70.5142 53.5609 71.5363 53.0396 72.4058V72.4058Z" fill="#2F2E41"/>
<path d="M29.4785 101.888H25.4675C21.8661 77.1865 18.2003 52.4156 29.0329 43.17L41.8088 45.2512L40.1747 56.1029L33.0439 64.2789L29.4785 101.888Z" fill="#2F2E41"/>
<path d="M33.0045 107.484C32.6905 107.57 32.3619 107.588 32.0404 107.537C31.7188 107.487 31.4116 107.369 31.1389 107.191L26.7838 106.605C25.8479 105.995 25.1719 105.059 24.8869 103.978C24.6019 102.898 24.7283 101.75 25.2414 100.757C27.0858 101.841 28.7037 101.69 30.1096 100.382C31.1031 102.389 32.7398 102.267 34.303 103.958C34.51 104.262 34.6414 104.61 34.6864 104.975C34.7314 105.34 34.6885 105.711 34.5615 106.056C34.4345 106.401 34.2269 106.71 33.956 106.959C33.6852 107.207 33.359 107.387 33.0045 107.484V107.484Z" fill="#2F2E41"/>
<path d="M38.9862 26.6695L31.5583 24.8856C32.792 22.3588 32.8936 19.5472 32.3011 16.561L37.3521 16.4124C37.5104 20.1257 37.9892 23.595 38.9862 26.6695Z" fill="#FFB8B8"/>
<path d="M41.0277 49.727C35.6205 53.4141 31.7999 49.8532 28.8844 44.3592C29.2895 40.9975 28.6335 36.9744 27.4186 32.603C26.8783 30.6749 27.08 28.6142 27.984 26.8276C28.8879 25.0411 30.4283 23.6586 32.3012 22.9531V22.9531L38.6892 25.6289C44.1133 30.053 45.1809 34.8453 43.1459 39.8997L41.0277 49.727Z" fill="#FF556F"/>
<path d="M25.4675 30.3858L19.5252 33.5075L30.0728 39.751L31.5405 43.3735C31.6384 43.6153 31.6861 43.8745 31.6807 44.1353C31.6753 44.3962 31.6168 44.6532 31.5089 44.8907C31.401 45.1281 31.2458 45.3412 31.0529 45.5167C30.8601 45.6922 30.6335 45.8266 30.387 45.9117V45.9117C30.1068 46.0084 29.808 46.0388 29.5141 46.0007C29.2202 45.9625 28.9391 45.8568 28.6928 45.6918C28.4466 45.5268 28.2418 45.307 28.0946 45.0496C27.9474 44.7922 27.8617 44.5042 27.8443 44.2082L27.6959 41.6835L14.2901 37.2567C13.8384 37.1075 13.4265 36.8575 13.0857 36.5255C12.7449 36.1935 12.4841 35.7882 12.323 35.3404V35.3404C12.0882 34.6877 12.0762 33.9755 12.289 33.3152C12.5018 32.6549 12.9274 32.0839 13.4991 31.6914L24.2791 24.291L25.4675 30.3858Z" fill="#FFB8B8"/>
<path d="M31.4098 30.9805C28.9315 29.8937 26.6779 31.0743 23.8334 32.0211L23.3877 24.1424C26.2122 22.636 28.9052 22.2299 31.4098 23.3991L31.4098 30.9805Z" fill="#FF556F"/>
<path d="M34.3745 20.3149C36.9937 20.3149 39.1169 18.1903 39.1169 15.5695C39.1169 12.9486 36.9937 10.824 34.3745 10.824C31.7553 10.824 29.6321 12.9486 29.6321 15.5695C29.6321 18.1903 31.7553 20.3149 34.3745 20.3149Z" fill="#FFB8B8"/>
<path d="M40.0479 14.9707C35.3525 15.4308 31.7747 14.6624 29.488 12.4745V10.7125H39.6494L40.0479 14.9707Z" fill="#2F2E41"/>
</g>
<defs>
<clipPath id="clip0_6_506">
<rect width="158" height="110" fill="white"/>
</clipPath>
</defs>
</svg>
