<svg width="64" height="64" viewBox="0 0 64 64" fill="none" xmlns="http://www.w3.org/2000/svg">
<rect width="64" height="64" rx="12" fill="white"/>
<path d="M32.3095 51.7623H31.0255C30.7894 51.7623 30.5977 51.5706 30.5977 51.3344V48.6225L28.249 49.9788C28.0447 50.0972 27.7826 50.0269 27.6646 49.8223L27.0228 48.7104C26.9047 48.5061 26.9747 48.2441 27.1793 48.1257L29.528 46.7694L27.179 45.4131C26.9747 45.295 26.904 45.0333 27.0224 44.8286L27.6642 43.7168C27.7826 43.5125 28.044 43.4418 28.2487 43.5602L30.5973 44.9165V42.2046C30.5973 41.9685 30.789 41.7767 31.0252 41.7767H32.3092C32.5453 41.7767 32.737 41.9684 32.737 42.2046V44.9165L35.0857 43.5602C35.29 43.4422 35.5521 43.5121 35.6701 43.7168L36.312 44.8286C36.43 45.0329 36.36 45.295 36.1554 45.4131L33.8074 46.7694L36.1564 48.1257C36.3607 48.2437 36.4314 48.5054 36.313 48.7104L35.6712 49.8223C35.5527 50.0266 35.2914 50.0972 35.0867 49.9788L32.7381 48.6225V51.3344C32.7377 51.5706 32.546 51.7623 32.3095 51.7623H32.3095Z" fill="url(#paint0_linear_4_78)"/>
<path d="M14.3404 48.1255L16.6891 46.7692L14.3401 45.4129C14.1358 45.2948 14.0651 45.0331 14.1835 44.8285L14.8254 43.7167C14.9438 43.5123 15.2051 43.4417 15.4098 43.5601L17.7585 44.9164V42.2045C17.7585 41.9683 17.9502 41.7766 18.1863 41.7766H19.4703C19.7065 41.7766 19.8982 41.9683 19.8982 42.2045V44.9164L22.2468 43.5601C22.4512 43.442 22.7132 43.512 22.8313 43.7167L23.4731 44.8285C23.5912 45.0328 23.5212 45.2948 23.3165 45.4129L20.9685 46.7692L23.3175 48.1255C23.5219 48.2436 23.5925 48.5053 23.4741 48.7103L22.8323 49.8221C22.7139 50.0264 22.4525 50.0971 22.2479 49.9787L19.8992 48.6224V51.3343C19.8992 51.5705 19.7075 51.7622 19.4713 51.7622H18.1874C17.9512 51.7622 17.7595 51.5705 17.7595 51.3343V48.6224L15.4108 49.9787C15.2065 50.0971 14.9445 50.0268 14.8264 49.8221L14.1846 48.7103C14.0655 48.5053 14.1355 48.2436 14.3405 48.1255H14.3404Z" fill="url(#paint1_linear_4_78)"/>
<path d="M45.5761 42.2046V44.9165L47.9248 43.5602C48.1291 43.4422 48.3911 43.5121 48.5092 43.7168L49.151 44.8286C49.2691 45.0329 49.1991 45.295 48.9945 45.4131L46.6458 46.7694L48.9948 48.1257C49.1991 48.2437 49.2698 48.5054 49.1513 48.7104L48.5095 49.8223C48.3911 50.0266 48.1297 50.0972 47.9251 49.9788L45.5764 48.6225V51.3344C45.5764 51.5706 45.3847 51.7623 45.1486 51.7623H43.8646C43.6284 51.7623 43.4367 51.5706 43.4367 51.3344V48.6225L41.0881 49.9788C40.8837 50.0972 40.6217 50.0269 40.5036 49.8223L39.8618 48.7104C39.7437 48.5061 39.8137 48.2441 40.0184 48.1257L42.3664 46.7694L40.0174 45.4131C39.813 45.295 39.7424 45.0333 39.8608 44.8286L40.5026 43.7168C40.621 43.5125 40.8824 43.4418 41.087 43.5602L43.4357 44.9165V42.2046C43.4357 41.9685 43.6274 41.7767 43.8636 41.7767H45.1475C45.3844 41.7767 45.5761 41.9681 45.5761 42.2046H45.5761Z" fill="url(#paint2_linear_4_78)"/>
<path d="M31.6676 11.8198C27.7348 11.8198 24.535 15.0196 24.535 18.9524V23.2318H23.1084C22.3206 23.2318 21.6818 23.8703 21.6818 24.6584V37.4971C21.6818 38.2849 22.3203 38.9237 23.1084 38.9237H40.2266C41.0144 38.9237 41.6532 38.2852 41.6532 37.4971V24.6584C41.6532 23.8707 41.0147 23.2318 40.2266 23.2318H38.8V18.9524C38.8 15.0193 35.6002 11.8198 31.6674 11.8198H31.6676ZM33.0942 31.3954V33.9308C33.0942 34.3245 32.7748 34.6439 32.3811 34.6439H30.9545C30.5607 34.6439 30.2413 34.3245 30.2413 33.9308V31.3954C29.3922 30.9012 28.8147 29.9914 28.8147 28.938C28.8147 27.3621 30.0921 26.0848 31.6679 26.0848C33.2438 26.0848 34.5211 27.3621 34.5211 28.938C34.5208 29.9914 33.9433 30.9009 33.0942 31.3954H33.0942ZM35.9471 23.2319H27.3879V18.9525C27.3879 16.5925 29.3074 14.6731 31.6673 14.6731C34.0273 14.6731 35.9467 16.5925 35.9467 18.9525L35.9471 23.2319Z" fill="url(#paint3_linear_4_78)"/>
<defs>
<linearGradient id="paint0_linear_4_78" x1="27.0652" y1="41.5718" x2="35.2921" y2="52.6327" gradientUnits="userSpaceOnUse">
<stop stop-color="#FB5478"/>
<stop offset="1" stop-color="#FE7D6A"/>
</linearGradient>
<linearGradient id="paint1_linear_4_78" x1="14.2263" y1="41.5716" x2="22.4533" y2="52.6325" gradientUnits="userSpaceOnUse">
<stop stop-color="#FB5478"/>
<stop offset="1" stop-color="#FE7D6A"/>
</linearGradient>
<linearGradient id="paint2_linear_4_78" x1="39.9036" y1="41.5718" x2="48.1305" y2="52.6327" gradientUnits="userSpaceOnUse">
<stop stop-color="#FB5478"/>
<stop offset="1" stop-color="#FE7D6A"/>
</linearGradient>
<linearGradient id="paint3_linear_4_78" x1="21.8946" y1="11.2635" x2="45.1807" y2="35.7554" gradientUnits="userSpaceOnUse">
<stop stop-color="#FB5478"/>
<stop offset="1" stop-color="#FE7D6A"/>
</linearGradient>
</defs>
</svg>
