<svg width="18" height="18" viewBox="0 0 18 18" fill="none" xmlns="http://www.w3.org/2000/svg">
<path fill-rule="evenodd" clip-rule="evenodd" d="M2.81256 15.4835C3.06582 15.7366 3.40912 15.8789 3.76718 15.8789H11.2505C11.6086 15.8789 11.9519 15.7366 12.2052 15.4835L12.2435 15.4451C12.4966 15.1919 12.6389 14.8486 12.6389 14.4905V7.00714C12.6389 6.64908 12.4967 6.30578 12.2435 6.05252L12.2052 6.01416C11.9519 5.76103 11.6086 5.61878 11.2505 5.61878H3.76718C3.40912 5.61878 3.06582 5.76102 2.81256 6.01416L2.7742 6.05252C2.52107 6.30578 2.37882 6.64908 2.37882 7.00714V14.4905C2.37882 14.8486 2.52107 15.1919 2.7742 15.4451L2.81256 15.4835ZM13.1977 5.0983L13.1594 5.0598C12.6531 4.55355 11.9664 4.26904 11.2503 4.26904H3.76692C3.05078 4.26904 2.36407 4.55354 1.85782 5.0598L1.81932 5.0983C1.31308 5.60455 1.02856 6.29142 1.02856 7.0074V14.4908C1.02856 15.2068 1.31307 15.8936 1.81932 16.4L1.85782 16.4382C2.36407 16.9446 3.05081 17.2291 3.76692 17.2291H11.2503C11.9664 17.2291 12.6531 16.9446 13.1594 16.4382L13.1977 16.4C13.7041 15.8936 13.9886 15.2068 13.9886 14.4908V7.0074C13.9886 6.29139 13.7041 5.60455 13.1977 5.0983V5.0983Z" fill="black"/>
<path fill-rule="evenodd" clip-rule="evenodd" d="M13.9889 12.6386H14.4905C14.8486 12.6386 15.1919 12.4964 15.4451 12.2433L15.4835 12.2049C15.7366 11.9516 15.8789 11.6083 15.8789 11.2503V3.76692C15.8789 3.40886 15.7366 3.06556 15.4835 2.8123L15.4451 2.77394C15.1919 2.52081 14.8486 2.37856 14.4905 2.37856H7.00715C6.6491 2.37856 6.3058 2.52081 6.05254 2.77394L6.01418 2.8123C5.76105 3.06556 5.6188 3.40886 5.6188 3.76692V4.26854H4.2688V3.76692C4.2688 3.05078 4.5533 2.36407 5.05956 1.85782L5.09805 1.81932C5.6043 1.31308 6.29105 1.02856 7.00715 1.02856H14.4905C15.2065 1.02856 15.8934 1.31307 16.3998 1.81932L16.438 1.85782C16.9444 2.36407 17.2289 3.05081 17.2289 3.76692V11.2503C17.2289 11.9664 16.9444 12.6531 16.438 13.1594L16.3998 13.1977C15.8934 13.7041 15.2065 13.9886 14.4905 13.9886H13.9889L13.9889 12.6386Z" fill="black"/>
</svg>
