<svg width="18" height="18" viewBox="0 0 18 18" fill="none" xmlns="http://www.w3.org/2000/svg">
<path fill-rule="evenodd" clip-rule="evenodd" d="M3.52329 2.70181C3.06964 2.70181 2.70181 3.06964 2.70181 3.52329V14.4767C2.70181 14.9304 3.06964 15.2982 3.52329 15.2982H14.4767C14.9304 15.2982 15.2982 14.9304 15.2982 14.4767V7.35704C15.2982 6.90339 15.6661 6.53556 16.1197 6.53556C16.5734 6.53556 16.9412 6.90339 16.9412 7.35704V14.4767C16.9412 15.8377 15.8377 16.9412 14.4767 16.9412H3.52329C2.16235 16.9412 1.05884 15.8377 1.05884 14.4767V3.52329C1.05884 2.16235 2.16235 1.05884 3.52329 1.05884H10.0952C10.5488 1.05884 10.9167 1.42667 10.9167 1.88032C10.9167 2.33416 10.5488 2.70181 10.0952 2.70181H3.52329Z" fill="black"/>
<path fill-rule="evenodd" clip-rule="evenodd" d="M15.1104 2.88151C14.8964 2.6677 14.5497 2.6677 14.3359 2.88151L8.88731 8.33006L8.65499 9.33692L9.66166 9.1046L15.1102 3.65604C15.324 3.44223 15.324 3.09551 15.1102 2.8815L15.1104 2.88151ZM13.1741 1.71969C14.0295 0.864269 15.4166 0.864269 16.272 1.71969C17.1276 2.5753 17.1276 3.96225 16.272 4.81786L10.7681 10.3218C10.5866 10.5033 10.3579 10.6301 10.1078 10.6878L8.08507 11.1545C7.33583 11.3276 6.66433 10.6559 6.83726 9.90667L7.30411 7.88413C7.36169 7.63402 7.48858 7.40537 7.67012 7.22384L13.1741 1.71969Z" fill="black"/>
</svg>
