<svg width="20" height="20" viewBox="0 0 20 20" fill="none" xmlns="http://www.w3.org/2000/svg">
<path d="M11.6537 10.0672C11.6531 10.441 11.5042 10.7994 11.2395 11.0634C10.9749 11.3275 10.6161 11.4755 10.2423 11.4752C9.86855 11.4748 9.51008 11.326 9.24601 11.0616C8.98182 10.797 8.83353 10.4384 8.83367 10.0646C8.83393 9.69078 8.9825 9.33232 9.24693 9.06801C9.51125 8.80369 9.86984 8.65526 10.2436 8.65526C10.618 8.65526 10.9769 8.80409 11.2413 9.06893C11.5059 9.33378 11.6542 9.6929 11.6536 10.0672H11.6537ZM19.3129 10.6308C17.9059 12.5232 15.942 13.928 13.6966 14.6484C11.4511 15.3688 9.03653 15.3688 6.79115 14.6484C4.54568 13.9279 2.58172 12.5231 1.17482 10.6308C1.04546 10.4585 0.975586 10.2489 0.975586 10.0334C0.975586 9.81789 1.04547 9.60823 1.17482 9.43593C2.58189 7.54356 4.54571 6.13878 6.79115 5.41836C9.03663 4.69795 11.4512 4.69795 13.6966 5.41836C15.9421 6.13888 17.906 7.5437 19.3129 9.43593C19.4423 9.60823 19.5122 9.81789 19.5122 10.0334C19.5122 10.2489 19.4423 10.4585 19.3129 10.6308ZM13.7628 10.0672C13.7634 9.13386 13.393 8.23851 12.7333 7.57811C12.0737 6.91785 11.1786 6.54658 10.2452 6.54631C9.31186 6.54591 8.41651 6.91638 7.75639 7.57624C7.09612 8.23609 6.72513 9.1312 6.72499 10.0646C6.72472 10.998 7.09548 11.8932 7.75547 12.5533C8.41532 13.2133 9.31057 13.5842 10.2439 13.5842C11.1765 13.5831 12.0707 13.2123 12.7304 12.553C13.39 11.8937 13.7613 10.9998 13.7629 10.0672H13.7628Z" fill="white"/>
</svg>
