<svg width="26" height="26" viewBox="0 0 26 26" fill="none" xmlns="http://www.w3.org/2000/svg">
<g opacity="0.6">
<path d="M15.0414 6.18523C15.0414 6.73948 14.8213 7.27081 14.4295 7.66266C14.0376 8.05441 13.5062 8.27467 12.9521 8.27467C12.398 8.27467 11.8665 8.05442 11.4746 7.66266C11.0829 7.27077 10.8628 6.73948 10.8628 6.18523C10.8628 5.63114 11.0829 5.09966 11.4746 4.70795C11.8665 4.31606 12.398 4.09595 12.9521 4.09595C13.5062 4.09595 14.0377 4.31605 14.4295 4.70795C14.8213 5.0997 15.0414 5.63114 15.0414 6.18523Z" fill="black"/>
<path d="M15.0414 12.9965C15.0414 13.5506 14.8213 14.0821 14.4295 14.4738C14.0376 14.8657 13.5062 15.0858 12.9521 15.0858C12.398 15.0858 11.8665 14.8657 11.4746 14.4738C11.0829 14.082 10.8628 13.5506 10.8628 12.9965C10.8628 12.4424 11.0829 11.9109 11.4746 11.5191C11.8665 11.1273 12.398 10.9072 12.9521 10.9072C13.5062 10.9072 14.0377 11.1273 14.4295 11.5191C14.8213 11.911 15.0414 12.4424 15.0414 12.9965Z" fill="black"/>
<path d="M15.0414 19.8078C15.0414 20.362 14.8213 20.8934 14.4295 21.2852C14.0376 21.6771 13.5062 21.8972 12.9521 21.8972C12.398 21.8972 11.8665 21.6771 11.4746 21.2852C11.0829 20.8933 10.8628 20.362 10.8628 19.8078C10.8628 19.2537 11.0829 18.7222 11.4746 18.3305C11.8665 17.9386 12.398 17.7185 12.9521 17.7185C13.5062 17.7185 14.0377 17.9386 14.4295 18.3305C14.8213 18.7223 15.0414 19.2537 15.0414 19.8078Z" fill="black"/>
</g>
</svg>
